<?xml version="1.0" encoding="UTF-8"?>
<!DOCTYPE svg PUBLIC "-//W3C//DTD SVG 1.1//EN" "http://www.w3.org/Graphics/SVG/1.1/DTD/svg11.dtd">
<svg xmlns="http://www.w3.org/2000/svg" version="1.1" width="563px" height="199px" style="shape-rendering:geometricPrecision; text-rendering:geometricPrecision; image-rendering:optimizeQuality; fill-rule:evenodd; clip-rule:evenodd" xmlns:xlink="http://www.w3.org/1999/xlink">
<g><path style="opacity:1" fill="#9bcde0" d="M -0.5,-0.5 C 38.5,-0.5 77.5,-0.5 116.5,-0.5C 116.421,0.930472 116.754,2.26381 117.5,3.5C 120.895,4.72687 123.061,7.0602 124,10.5C 128.785,11.6187 131.452,14.6187 132,19.5C 133.11,21.0368 134.61,21.7035 136.5,21.5C 136.5,26.1667 138.833,28.5 143.5,28.5C 144.656,37.7891 145.489,47.1224 146,56.5C 148.073,64.2155 150.24,71.8822 152.5,79.5C 153.5,79.5 154.5,79.5 155.5,79.5C 155.364,84.9462 156.031,90.2796 157.5,95.5C 158.5,95.5 159.5,95.5 160.5,95.5C 160.351,96.552 160.517,97.552 161,98.5C 164.06,102.385 166.893,106.385 169.5,110.5C 170.325,111.386 171.325,111.719 172.5,111.5C 172.178,113.722 172.845,115.556 174.5,117C 178.782,118.97 182.782,121.303 186.5,124C 187.167,125 187.833,126 188.5,127C 194.3,128.731 199.3,131.731 203.5,136C 206.161,135.402 208.827,135.568 211.5,136.5C 210.311,137.429 208.978,137.762 207.5,137.5C 207.5,138.833 207.5,140.167 207.5,141.5C 209.527,141.662 211.527,141.495 213.5,141C 214.886,139.397 216.719,138.563 219,138.5C 223.119,139.452 227.286,140.119 231.5,140.5C 239.505,139.832 247.505,139.166 255.5,138.5C 255.5,137.5 255.5,136.5 255.5,135.5C 270.566,129.467 284.232,121.134 296.5,110.5C 305.91,130.654 318.744,148.321 335,163.5C 341.43,174.389 343.264,186.056 340.5,198.5C 226.833,198.5 113.167,198.5 -0.5,198.5C -0.5,132.167 -0.5,65.8333 -0.5,-0.5 Z"/></g>
<g><path style="opacity:1" fill="#f7fcfb" d="M 119.5,-0.5 C 140.167,-0.5 160.833,-0.5 181.5,-0.5C 181.578,7.05418 182.244,14.5542 183.5,22C 183.357,31.4638 179.69,32.9638 172.5,26.5C 170.074,20.434 168.908,14.1007 169,7.5C 168.882,5.42667 167.882,4.09333 166,3.5C 158.876,8.40423 154.209,15.0709 152,23.5C 151.311,24.3567 150.478,25.0233 149.5,25.5C 148.313,24.3473 147.313,24.3473 146.5,25.5C 145.833,24.1667 145.167,22.8333 144.5,21.5C 142.806,23.4376 140.806,23.7709 138.5,22.5C 136.527,19.7542 135.027,16.7542 134,13.5C 129.325,8.65762 124.491,3.99096 119.5,-0.5 Z"/></g>
<g><path style="opacity:1" fill="#9bcde0" d="M 181.5,-0.5 C 185.5,-0.5 189.5,-0.5 193.5,-0.5C 196.131,4.19128 200.131,5.69128 205.5,4C 206.38,2.64387 206.714,1.14387 206.5,-0.5C 242.167,-0.5 277.833,-0.5 313.5,-0.5C 287.156,29.8794 280.489,64.2128 293.5,102.5C 293.893,104.284 294.559,105.95 295.5,107.5C 264.024,138.781 228.691,143.615 189.5,122C 168.473,103.789 155.306,80.9553 150,53.5C 148.014,44.2779 146.847,34.9446 146.5,25.5C 147.313,24.3473 148.313,24.3473 149.5,25.5C 150.478,25.0233 151.311,24.3567 152,23.5C 154.209,15.0709 158.876,8.40423 166,3.5C 167.882,4.09333 168.882,5.42667 169,7.5C 168.908,14.1007 170.074,20.434 172.5,26.5C 179.69,32.9638 183.357,31.4638 183.5,22C 182.244,14.5542 181.578,7.05418 181.5,-0.5 Z"/></g>
<g><path style="opacity:1" fill="#f0fcfd" d="M 193.5,-0.5 C 197.833,-0.5 202.167,-0.5 206.5,-0.5C 206.714,1.14387 206.38,2.64387 205.5,4C 200.131,5.69128 196.131,4.19128 193.5,-0.5 Z"/></g>
<g><path style="opacity:1" fill="#0f1a46" d="M 313.5,-0.5 C 331.5,-0.5 349.5,-0.5 367.5,-0.5C 366.156,1.03478 364.489,2.36811 362.5,3.5C 359.947,11.3742 359.947,19.2076 362.5,27C 364.145,28.6449 365.812,30.3116 367.5,32C 362.676,32.2453 357.843,33.412 353,35.5C 350.88,34.5411 348.713,34.3744 346.5,35C 341.459,37.2059 336.792,40.0392 332.5,43.5C 331.914,43.2907 331.414,42.9574 331,42.5C 330.293,44.0806 329.46,45.5806 328.5,47C 329.428,47.3879 330.095,48.0546 330.5,49C 328.969,52.9929 328.302,57.1596 328.5,61.5C 328.891,66.5208 329.057,71.5208 329,76.5C 327.612,75.4464 326.112,75.2797 324.5,76C 322.678,79.8278 319.511,82.9944 315,85.5C 314.517,86.448 314.351,87.448 314.5,88.5C 314.167,89.1667 313.833,89.8333 313.5,90.5C 309.674,90.7967 306.674,92.6301 304.5,96C 300.717,96.5538 298.05,98.5538 296.5,102C 295.552,102.483 294.552,102.649 293.5,102.5C 280.489,64.2128 287.156,29.8794 313.5,-0.5 Z"/></g>
<g><path style="opacity:1" fill="#1c203e" d="M 408.5,-0.5 C 413.167,-0.5 417.833,-0.5 422.5,-0.5C 423.363,0.940261 423.363,2.27359 422.5,3.5C 426.744,4.98361 428.744,7.98361 428.5,12.5C 423.157,6.1598 416.49,1.82647 408.5,-0.5 Z"/></g>
<g><path style="opacity:1" fill="#0f1a46" d="M 422.5,-0.5 C 439.833,-0.5 457.167,-0.5 474.5,-0.5C 479.227,5.93646 483.727,12.6031 488,19.5C 491.393,26.1775 493.893,33.1775 495.5,40.5C 495.334,46.1764 495.501,51.8431 496,57.5C 496.236,60.2084 497.069,62.7084 498.5,65C 498.265,65.8732 497.931,66.7065 497.5,67.5C 500.269,72.018 502.935,76.518 505.5,81C 506.108,83.1841 505.441,85.1841 503.5,87C 505.113,87.0885 506.28,86.2552 507,84.5C 507.617,85.4491 507.451,86.2825 506.5,87C 507.549,87.4922 508.549,87.3256 509.5,86.5C 510.386,87.325 510.719,88.325 510.5,89.5C 512.948,89.0847 514.281,90.0847 514.5,92.5C 514.075,94.3805 513.075,95.8805 511.5,97C 511.646,98.7271 512.313,98.8938 513.5,97.5C 514.842,99.0049 516.508,99.6715 518.5,99.5C 519.56,102.895 520.56,106.395 521.5,110C 522.833,110.667 524.167,111.333 525.5,112C 524.711,113.626 523.711,115.126 522.5,116.5C 522.089,115.738 521.923,114.738 522,113.5C 521.333,114.167 520.667,114.833 520,115.5C 517.323,113.934 515.99,114.6 516,117.5C 517.067,118.191 518.234,118.691 519.5,119C 518.663,120.011 518.33,121.178 518.5,122.5C 516.774,122.185 515.107,122.019 513.5,122C 513.957,122.414 514.291,122.914 514.5,123.5C 513.975,125.988 513.142,128.321 512,130.5C 512.027,143.355 511.86,156.355 511.5,169.5C 510.897,180.366 507.23,190.032 500.5,198.5C 447.167,198.5 393.833,198.5 340.5,198.5C 343.264,186.056 341.43,174.389 335,163.5C 318.744,148.321 305.91,130.654 296.5,110.5C 297.5,108.833 298.833,107.5 300.5,106.5C 307.167,100.167 313.833,93.8333 320.5,87.5C 323.246,88.1489 325.913,87.4822 328.5,85.5C 329.037,88.7726 328.37,91.9393 326.5,95C 330.303,95.3871 332.637,97.3871 333.5,101C 340.465,102.254 347.465,102.587 354.5,102C 357.471,101.529 360.138,100.362 362.5,98.5C 363.386,97.675 363.719,96.675 363.5,95.5C 370.167,95.5 376.833,95.5 383.5,95.5C 383.5,96.5 383.5,97.5 383.5,98.5C 386.723,96.3899 390.39,95.3899 394.5,95.5C 395.167,95.5 395.5,95.8333 395.5,96.5C 394.227,97.0768 394.227,97.7435 395.5,98.5C 400.145,102.081 405.312,104.081 411,104.5C 416.822,103.673 422.655,102.84 428.5,102C 429.308,101.692 429.975,101.192 430.5,100.5C 429.873,99.5832 429.539,98.5832 429.5,97.5C 430.81,95.8523 432.143,94.1856 433.5,92.5C 439.016,91.7876 444.35,90.4543 449.5,88.5C 456.322,87.2585 460.822,83.2585 463,76.5C 464.577,68.2782 463.411,60.6115 459.5,53.5C 458.893,53.6236 458.56,53.9569 458.5,54.5C 457.188,53.8549 456.188,52.8549 455.5,51.5C 457.167,48.8333 458.833,46.1667 460.5,43.5C 459.998,42.479 459.332,42.3123 458.5,43C 457.267,44.6667 455.933,46.1667 454.5,47.5C 451.891,47.1699 450.224,45.6699 449.5,43C 446.412,42.4208 443.745,41.0875 441.5,39C 435.5,38.6667 429.5,38.3333 423.5,38C 422.027,37.2904 421.36,36.1238 421.5,34.5C 424.787,33.3997 427.787,31.733 430.5,29.5C 431.495,23.8722 431.829,18.2055 431.5,12.5C 430.5,12.5 429.5,12.5 428.5,12.5C 428.744,7.98361 426.744,4.98361 422.5,3.5C 423.363,2.27359 423.363,0.940261 422.5,-0.5 Z"/></g>
<g><path style="opacity:1" fill="#9bcde0" d="M 474.5,-0.5 C 503.833,-0.5 533.167,-0.5 562.5,-0.5C 562.5,65.8333 562.5,132.167 562.5,198.5C 541.833,198.5 521.167,198.5 500.5,198.5C 507.23,190.032 510.897,180.366 511.5,169.5C 513.489,155.053 514.656,140.387 515,125.5C 517.978,123.618 521.145,122.118 524.5,121C 529.745,116.12 530.578,110.62 527,104.5C 518.174,92.8489 509.84,80.8489 502,68.5C 499.571,59.1132 497.404,49.7798 495.5,40.5C 493.893,33.1775 491.393,26.1775 488,19.5C 483.727,12.6031 479.227,5.93646 474.5,-0.5 Z"/></g>
<g><path style="opacity:1" fill="#1c2039" d="M 367.5,-0.5 C 370.5,-0.5 373.5,-0.5 376.5,-0.5C 371.326,1.34757 366.826,4.34757 363,8.5C 359.174,21.3453 363.674,29.8453 376.5,34C 387.258,36.5292 395.758,33.3626 402,24.5C 404.339,16.4007 402.173,10.0674 395.5,5.5C 391.757,2.57664 387.424,1.74331 382.5,3C 377.478,4.84734 372.478,6.68067 367.5,8.5C 365.82,12.588 365.153,16.9213 365.5,21.5C 362.219,15.6317 363.219,10.465 368.5,6C 385.615,-1.55044 402.615,-1.21711 419.5,7C 426.489,12.0231 428.322,18.5231 425,26.5C 417.918,31.1933 410.085,33.6933 401.5,34C 396.979,36.4264 392.312,38.5931 387.5,40.5C 380.425,37.5836 373.092,35.9169 365.5,35.5C 357.592,37.1989 349.592,38.6989 341.5,40C 332.728,46.633 329.228,55.4664 331,66.5C 331.943,69.824 332.776,73.1574 333.5,76.5C 332.448,76.3505 331.448,76.5172 330.5,77C 324.932,80.6071 319.598,84.4404 314.5,88.5C 314.351,87.448 314.517,86.448 315,85.5C 319.511,82.9944 322.678,79.8278 324.5,76C 326.112,75.2797 327.612,75.4464 329,76.5C 329.057,71.5208 328.891,66.5208 328.5,61.5C 328.302,57.1596 328.969,52.9929 330.5,49C 330.095,48.0546 329.428,47.3879 328.5,47C 329.46,45.5806 330.293,44.0806 331,42.5C 331.414,42.9574 331.914,43.2907 332.5,43.5C 336.792,40.0392 341.459,37.2059 346.5,35C 348.713,34.3744 350.88,34.5411 353,35.5C 357.843,33.412 362.676,32.2453 367.5,32C 365.812,30.3116 364.145,28.6449 362.5,27C 359.947,19.2076 359.947,11.3742 362.5,3.5C 364.489,2.36811 366.156,1.03478 367.5,-0.5 Z"/></g>
<g><path style="opacity:1" fill="#171c3d" d="M 428.5,12.5 C 429.5,12.5 430.5,12.5 431.5,12.5C 431.829,18.2055 431.495,23.8722 430.5,29.5C 427.787,31.733 424.787,33.3997 421.5,34.5C 421.36,36.1238 422.027,37.2904 423.5,38C 429.5,38.3333 435.5,38.6667 441.5,39C 443.745,41.0875 446.412,42.4208 449.5,43C 450.224,45.6699 451.891,47.1699 454.5,47.5C 454.631,48.3764 454.298,49.0431 453.5,49.5C 436.643,38.8932 419.81,38.8932 403,49.5C 399.098,47.1306 395.265,44.6306 391.5,42C 393.67,40.4138 396.004,39.0804 398.5,38C 407.375,35.9489 416.042,33.2822 424.5,30C 429.289,24.9968 430.622,19.1634 428.5,12.5 Z"/></g>
<g><path style="opacity:1" fill="#a7cbd6" d="M 116.5,-0.5 C 117.5,-0.5 118.5,-0.5 119.5,-0.5C 124.491,3.99096 129.325,8.65762 134,13.5C 135.027,16.7542 136.527,19.7542 138.5,22.5C 140.806,23.7709 142.806,23.4376 144.5,21.5C 144.682,41.5496 148.349,60.883 155.5,79.5C 154.5,79.5 153.5,79.5 152.5,79.5C 150.24,71.8822 148.073,64.2155 146,56.5C 145.489,47.1224 144.656,37.7891 143.5,28.5C 138.833,28.5 136.5,26.1667 136.5,21.5C 134.61,21.7035 133.11,21.0368 132,19.5C 131.452,14.6187 128.785,11.6187 124,10.5C 123.061,7.0602 120.895,4.72687 117.5,3.5C 116.754,2.26381 116.421,0.930472 116.5,-0.5 Z"/></g>
<g><path style="opacity:1" fill="#181d37" d="M 449.5,88.5 C 461.904,79.5463 464.904,68.213 458.5,54.5C 458.56,53.9569 458.893,53.6236 459.5,53.5C 463.411,60.6115 464.577,68.2782 463,76.5C 460.822,83.2585 456.322,87.2585 449.5,88.5 Z"/></g>
<g><path style="opacity:1" fill="#dadde6" d="M 376.5,-0.5 C 387.167,-0.5 397.833,-0.5 408.5,-0.5C 416.49,1.82647 423.157,6.1598 428.5,12.5C 430.622,19.1634 429.289,24.9968 424.5,30C 416.042,33.2822 407.375,35.9489 398.5,38C 396.004,39.0804 393.67,40.4138 391.5,42C 395.265,44.6306 399.098,47.1306 403,49.5C 419.81,38.8932 436.643,38.8932 453.5,49.5C 454.298,49.0431 454.631,48.3764 454.5,47.5C 455.933,46.1667 457.267,44.6667 458.5,43C 459.332,42.3123 459.998,42.479 460.5,43.5C 458.833,46.1667 457.167,48.8333 455.5,51.5C 456.188,52.8549 457.188,53.8549 458.5,54.5C 464.904,68.213 461.904,79.5463 449.5,88.5C 444.35,90.4543 439.016,91.7876 433.5,92.5C 432.143,94.1856 430.81,95.8523 429.5,97.5C 417.987,104.375 406.654,104.042 395.5,96.5C 395.5,95.8333 395.167,95.5 394.5,95.5C 392.983,93.8158 391.15,92.4825 389,91.5C 379.887,92.8664 370.72,93.8664 361.5,94.5C 359.358,97.0728 356.692,98.9062 353.5,100C 337.391,102.558 330.724,95.8909 333.5,80C 331.711,79.4795 330.044,79.8129 328.5,81C 325.645,83.0308 322.978,85.1975 320.5,87.5C 313.833,93.8333 307.167,100.167 300.5,106.5C 300.158,105.662 299.492,105.328 298.5,105.5C 303.194,100.14 308.194,95.1396 313.5,90.5C 313.833,89.8333 314.167,89.1667 314.5,88.5C 319.598,84.4404 324.932,80.6071 330.5,77C 331.448,76.5172 332.448,76.3505 333.5,76.5C 332.776,73.1574 331.943,69.824 331,66.5C 329.228,55.4664 332.728,46.633 341.5,40C 349.592,38.6989 357.592,37.1989 365.5,35.5C 373.092,35.9169 380.425,37.5836 387.5,40.5C 392.312,38.5931 396.979,36.4264 401.5,34C 410.085,33.6933 417.918,31.1933 425,26.5C 428.322,18.5231 426.489,12.0231 419.5,7C 402.615,-1.21711 385.615,-1.55044 368.5,6C 363.219,10.465 362.219,15.6317 365.5,21.5C 366.957,26.4537 370.291,29.6204 375.5,31C 383.909,33.8464 391.409,32.3464 398,26.5C 401.246,21.1366 401.246,15.8033 398,10.5C 397.329,9.74756 396.496,9.41423 395.5,9.5C 394.722,8.84439 394.056,8.01106 393.5,7C 393.836,5.97008 394.503,5.47008 395.5,5.5C 402.173,10.0674 404.339,16.4007 402,24.5C 395.758,33.3626 387.258,36.5292 376.5,34C 363.674,29.8453 359.174,21.3453 363,8.5C 366.826,4.34757 371.326,1.34757 376.5,-0.5 Z"/></g>
<g><path style="opacity:1" fill="#1c2038" d="M 432.5,88.5 C 432.196,87.8501 431.863,87.1835 431.5,86.5C 433.907,82.9195 434.074,79.2528 432,75.5C 427.793,77.0197 423.96,79.1864 420.5,82C 421.337,83.0113 421.67,84.1779 421.5,85.5C 422.873,85.3433 424.207,85.51 425.5,86C 424.944,86.3826 424.611,86.8826 424.5,87.5C 420.553,86.9619 416.887,85.6286 413.5,83.5C 420.993,79.9221 427.993,75.5888 434.5,70.5C 435.66,74.4589 435.827,78.4589 435,82.5C 434.76,84.8516 433.927,86.8516 432.5,88.5 Z"/></g>
<g><path style="opacity:1" fill="#121944" d="M 396.5,76.5 C 397.833,77.1667 398.833,78.1667 399.5,79.5C 396.5,79.5 393.5,79.5 390.5,79.5C 390.5,78.5 390.5,77.5 390.5,76.5C 388.692,76.5086 387.025,76.0086 385.5,75C 385.626,73.0257 385.792,70.859 386,68.5C 387.667,67.1667 389.333,67.1667 391,68.5C 390.776,72.7598 392.609,75.4264 396.5,76.5 Z"/></g>
<g><path style="opacity:1" fill="#242536" d="M 373.5,65.5 C 375.167,65.5 376.833,65.5 378.5,65.5C 378.823,76.9885 384.656,82.9885 396,83.5C 399.532,83.1245 403.032,82.9578 406.5,83C 401.686,85.3269 396.686,87.1602 391.5,88.5C 385.504,83.3425 379.338,78.3425 373,73.5C 372.57,70.8078 372.737,68.1411 373.5,65.5 Z"/></g>
<g><path style="opacity:1" fill="#1a1e3a" d="M 401.5,57.5 C 404.547,56.8554 406.713,57.8554 408,60.5C 408.839,65.9212 408.506,71.2545 407,76.5C 404.146,79.0164 401.479,78.6831 399,75.5C 392.374,68.2717 393.207,62.2717 401.5,57.5 Z"/></g>
<g><path style="opacity:1" fill="#111b44" d="M 450.5,57.5 C 456.162,57.8461 458.495,60.8461 457.5,66.5C 457.414,69.0418 457.08,71.5418 456.5,74C 454.19,76.6462 451.857,79.3129 449.5,82C 446.705,83.1387 444.205,84.6387 442,86.5C 440.345,84.1895 440.178,81.6895 441.5,79C 440.961,75.969 440.294,72.969 439.5,70C 440.439,68.0561 441.773,66.3894 443.5,65C 443.272,64.6012 442.938,64.4346 442.5,64.5C 445.141,62.1956 447.808,59.8623 450.5,57.5 Z"/></g>
<g><path style="opacity:1" fill="#191e3a" d="M 367.5,79.5 C 367.579,78.0695 367.246,76.7362 366.5,75.5C 361.834,74.1667 357.167,72.8334 352.5,71.5C 349.932,73.7172 346.932,74.8839 343.5,75C 341.789,76.1332 341.289,77.6332 342,79.5C 345.818,81.5619 348.984,84.2285 351.5,87.5C 345.164,85.319 340.664,81.319 338,75.5C 344.264,68.7476 351.764,66.9143 360.5,70C 363.981,70.9045 366.981,72.5712 369.5,75C 369.101,76.7275 368.434,78.2275 367.5,79.5 Z"/></g>
<g><path style="opacity:1" fill="#1b1f39" d="M 396.5,76.5 C 392.609,75.4264 390.776,72.7598 391,68.5C 389.333,67.1667 387.667,67.1667 386,68.5C 385.792,70.859 385.626,73.0257 385.5,75C 387.025,76.0086 388.692,76.5086 390.5,76.5C 390.5,77.5 390.5,78.5 390.5,79.5C 393.5,79.5 396.5,79.5 399.5,79.5C 402.097,79.7208 402.097,80.2208 399.5,81C 387.62,82.0415 381.286,76.5415 380.5,64.5C 384.391,64.3915 388.058,63.3915 391.5,61.5C 391.658,67.1169 393.324,72.1169 396.5,76.5 Z"/></g>
<g><path style="opacity:1" fill="#20222e" d="M 360.5,67.5 C 363.833,66.1667 367.167,66.1667 370.5,67.5C 370.762,68.9778 370.429,70.3112 369.5,71.5C 366.672,69.7795 363.672,68.4462 360.5,67.5 Z"/></g>
<g><path style="opacity:1" fill="#1b1e3d" d="M 335.5,50.5 C 337.968,53.0098 339.801,56.0098 341,59.5C 342.402,61.6334 344.235,63.3001 346.5,64.5C 346.137,65.1835 345.804,65.8501 345.5,66.5C 342.443,68.0444 339.776,70.2111 337.5,73C 336.551,73.6172 335.718,73.4506 335,72.5C 333.963,68.9222 333.463,65.2556 333.5,61.5C 333.294,57.5313 333.961,53.8646 335.5,50.5 Z"/></g>
<g><path style="opacity:1" fill="#101947" d="M 399.5,61.5 C 401.5,61.5 403.5,61.5 405.5,61.5C 405.5,65.1667 405.5,68.8333 405.5,72.5C 401.344,74.3707 398.677,73.0374 397.5,68.5C 398.478,66.223 399.145,63.8897 399.5,61.5 Z"/></g>
<g><path style="opacity:1" fill="#52545c" d="M 353.5,64.5 C 359.511,64.9774 365.511,65.644 371.5,66.5C 371.376,67.1067 371.043,67.44 370.5,67.5C 367.167,66.1667 363.833,66.1667 360.5,67.5C 356.548,66.7279 352.548,66.3946 348.5,66.5C 350.167,65.8333 351.833,65.1667 353.5,64.5 Z"/></g>
<g><path style="opacity:1" fill="#111a45" d="M 415.5,79.5 C 415.167,79.5 414.833,79.5 414.5,79.5C 412.302,79.8799 410.635,79.2132 409.5,77.5C 410.455,75.2543 411.122,72.921 411.5,70.5C 412.906,68.1619 414.239,65.6619 415.5,63C 414.167,62.3333 413.167,61.3333 412.5,60C 414.5,59.3333 416.5,59.3333 418.5,60C 420.91,62.5321 423.91,64.0321 427.5,64.5C 428.167,65.5 428.833,66.5 429.5,67.5C 427.167,69.1667 425.167,71.1667 423.5,73.5C 421.057,75.0553 418.39,75.722 415.5,75.5C 415.5,76.8333 415.5,78.1667 415.5,79.5 Z"/></g>
<g><path style="opacity:1" fill="#1a1f3a" d="M 419.5,57.5 C 425.882,58.3636 430.548,61.6969 433.5,67.5C 428.197,72.4893 422.197,76.4893 415.5,79.5C 415.5,78.1667 415.5,76.8333 415.5,75.5C 418.39,75.722 421.057,75.0553 423.5,73.5C 425.167,71.1667 427.167,69.1667 429.5,67.5C 428.833,66.5 428.167,65.5 427.5,64.5C 423.91,64.0321 420.91,62.5321 418.5,60C 416.5,59.3333 414.5,59.3333 412.5,60C 413.167,61.3333 414.167,62.3333 415.5,63C 414.239,65.6619 412.906,68.1619 411.5,70.5C 411.81,66.3005 411.143,62.3005 409.5,58.5C 412.625,57.5206 415.958,57.1872 419.5,57.5 Z"/></g>
<g><path style="opacity:1" fill="#646873" d="M 419.5,57.5 C 415.958,57.1872 412.625,57.5206 409.5,58.5C 408.957,58.44 408.624,58.1067 408.5,57.5C 412.315,56.1923 415.981,56.1923 419.5,57.5 Z"/></g>
<g><path style="opacity:1" fill="#292834" d="M 402.5,53.5 C 403.289,53.7828 403.956,54.2828 404.5,55C 402.835,55.7885 401.169,56.1218 399.5,56C 400.571,55.1482 401.571,54.3149 402.5,53.5 Z"/></g>
<g><path style="opacity:1" fill="#1c2035" d="M 427.5,57.5 C 429.726,56.441 432.059,56.6077 434.5,58C 434.043,58.414 433.709,58.914 433.5,59.5C 434.853,60.6853 436.02,62.0186 437,63.5C 438.664,58.749 441.83,55.4157 446.5,53.5C 447.386,52.675 447.719,51.675 447.5,50.5C 440.823,48.2639 433.99,46.5973 427,45.5C 420.523,46.1489 414.689,48.3155 409.5,52C 412.251,52.9428 414.917,53.7761 417.5,54.5C 413.563,54.7935 409.73,54.4601 406,53.5C 405.333,52.8333 405.333,52.1667 406,51.5C 415.098,44.9086 425.265,42.7419 436.5,45C 441.364,46.3434 446.031,48.1767 450.5,50.5C 451.521,51.0016 451.688,51.6683 451,52.5C 446.301,57.5336 441.301,62.2002 436,66.5C 433.666,63 430.832,60 427.5,57.5 Z"/></g>
<g><path style="opacity:1" fill="#1b1e3a" d="M 381.5,41.5 C 379.933,41.4625 378.266,41.7958 376.5,42.5C 374.104,41.2779 371.604,40.2779 369,39.5C 364.523,39.8231 364.356,40.8231 368.5,42.5C 369.309,44.0709 369.643,45.7376 369.5,47.5C 371.91,47.9209 373.743,49.2542 375,51.5C 377.556,50.7809 378.723,49.1142 378.5,46.5C 381.47,46.2542 382.803,44.5876 382.5,41.5C 383.922,41.7086 385.255,42.2086 386.5,43C 380.505,48.4742 377.505,55.3075 377.5,63.5C 376.167,63.5 374.833,63.5 373.5,63.5C 373.243,52.4138 368.243,44.2471 358.5,39C 362.646,37.4049 366.98,37.0716 371.5,38C 375.245,38.3022 378.578,39.4688 381.5,41.5 Z"/></g>
<g><path style="opacity:1" fill="#1f233c" d="M 367.5,50.5 C 366.778,50.9175 366.278,51.5842 366,52.5C 364.562,51.0997 363.729,49.433 363.5,47.5C 361.833,47.5 360.167,47.5 358.5,47.5C 358.5,46.5 358.5,45.5 358.5,44.5C 354.576,42.8949 350.909,43.3949 347.5,46C 347.275,49.6726 347.608,53.5059 348.5,57.5C 349.5,57.5 350.5,57.5 351.5,57.5C 351.5,58.5 351.5,59.5 351.5,60.5C 354.216,60.6785 356.883,61.1785 359.5,62C 358.906,62.4643 358.239,62.631 357.5,62.5C 345.559,61.9035 341.725,56.2368 346,45.5C 348.388,43.6019 350.888,41.9352 353.5,40.5C 359.646,41.894 364.313,45.2273 367.5,50.5 Z"/></g>
<g><path style="opacity:1" fill="#1b1f32" d="M 353.5,64.5 C 351.833,65.1667 350.167,65.8333 348.5,66.5C 347.5,66.5 346.5,66.5 345.5,66.5C 345.804,65.8501 346.137,65.1835 346.5,64.5C 344.235,63.3001 342.402,61.6334 341,59.5C 339.801,56.0098 337.968,53.0098 335.5,50.5C 337.936,45.2173 341.936,42.0507 347.5,41C 339.968,47.7033 339.635,54.7033 346.5,62C 348.65,63.4114 350.984,64.2447 353.5,64.5 Z"/></g>
<g><path style="opacity:1" fill="#111a44" d="M 427.5,57.5 C 424.301,56.1009 420.968,55.1009 417.5,54.5C 414.917,53.7761 412.251,52.9428 409.5,52C 414.689,48.3155 420.523,46.1489 427,45.5C 433.99,46.5973 440.823,48.2639 447.5,50.5C 447.719,51.675 447.386,52.675 446.5,53.5C 441.83,55.4157 438.664,58.749 437,63.5C 436.02,62.0186 434.853,60.6853 433.5,59.5C 433.709,58.914 434.043,58.414 434.5,58C 432.059,56.6077 429.726,56.441 427.5,57.5 Z"/></g>
<g><path style="opacity:1" fill="#121a44" d="M 367.5,50.5 C 370.038,54.4313 371.038,58.7646 370.5,63.5C 365.968,63.8182 361.634,63.4849 357.5,62.5C 358.239,62.631 358.906,62.4643 359.5,62C 356.883,61.1785 354.216,60.6785 351.5,60.5C 351.5,59.5 351.5,58.5 351.5,57.5C 350.5,57.5 349.5,57.5 348.5,57.5C 347.608,53.5059 347.275,49.6726 347.5,46C 350.909,43.3949 354.576,42.8949 358.5,44.5C 358.5,45.5 358.5,46.5 358.5,47.5C 360.167,47.5 361.833,47.5 363.5,47.5C 363.729,49.433 364.562,51.0997 366,52.5C 366.278,51.5842 366.778,50.9175 367.5,50.5 Z"/></g>
<g><path style="opacity:1" fill="#1e203b" d="M 387.5,44.5 C 392.568,45.5332 396.902,47.8665 400.5,51.5C 395.24,56.965 388.907,60.6316 381.5,62.5C 380.359,60.5787 380.192,58.5787 381,56.5C 382.402,52.0252 384.569,48.0252 387.5,44.5 Z"/></g>
<g><path style="opacity:1" fill="#111847" d="M 388.5,47.5 C 399.005,50.1983 399.005,53.0316 388.5,56C 388.833,56.3333 389.167,56.6667 389.5,57C 387.655,58.128 385.655,58.628 383.5,58.5C 383.215,56.712 383.548,55.0453 384.5,53.5C 387.626,53.3824 388.959,51.3824 388.5,47.5 Z"/></g>
<g><path style="opacity:1" fill="#121947" d="M 381.5,41.5 C 381.833,41.5 382.167,41.5 382.5,41.5C 382.803,44.5876 381.47,46.2542 378.5,46.5C 378.723,49.1142 377.556,50.7809 375,51.5C 373.743,49.2542 371.91,47.9209 369.5,47.5C 369.643,45.7376 369.309,44.0709 368.5,42.5C 364.356,40.8231 364.523,39.8231 369,39.5C 371.604,40.2779 374.104,41.2779 376.5,42.5C 378.266,41.7958 379.933,41.4625 381.5,41.5 Z"/></g>
<g><path style="opacity:1" fill="#1f223d" d="M 395.5,9.5 C 396.496,9.41423 397.329,9.74756 398,10.5C 401.246,15.8033 401.246,21.1366 398,26.5C 391.409,32.3464 383.909,33.8464 375.5,31C 370.291,29.6204 366.957,26.4537 365.5,21.5C 368.681,23.8373 372.014,26.004 375.5,28C 379.833,28.6667 384.167,28.6667 388.5,28C 391.333,26.5 393.5,24.3333 395,21.5C 395.414,21.9574 395.914,22.2907 396.5,22.5C 398.493,17.4722 397.493,13.3055 393.5,10C 394.094,9.53566 394.761,9.36899 395.5,9.5 Z"/></g>
<g><path style="opacity:1" fill="#101946" d="M 395.5,5.5 C 394.503,5.47008 393.836,5.97008 393.5,7C 394.056,8.01106 394.722,8.84439 395.5,9.5C 394.761,9.36899 394.094,9.53566 393.5,10C 397.493,13.3055 398.493,17.4722 396.5,22.5C 395.914,22.2907 395.414,21.9574 395,21.5C 393.5,24.3333 391.333,26.5 388.5,28C 384.167,28.6667 379.833,28.6667 375.5,28C 372.014,26.004 368.681,23.8373 365.5,21.5C 365.153,16.9213 365.82,12.588 367.5,8.5C 372.478,6.68067 377.478,4.84734 382.5,3C 387.424,1.74331 391.757,2.57664 395.5,5.5 Z"/></g>
<g><path style="opacity:1" fill="#101946" d="M 399.5,2.5 C 409.482,3.5398 417.648,7.87314 424,15.5C 425.116,24.7217 420.949,29.2217 411.5,29C 410.833,29.6667 410.167,30.3333 409.5,31C 406.118,31.8236 402.784,31.657 399.5,30.5C 402.19,28.8065 404.19,26.4732 405.5,23.5C 404.935,18.4927 404.268,13.4927 403.5,8.5C 402.264,7.75415 400.93,7.42082 399.5,7.5C 399.5,5.83333 399.5,4.16667 399.5,2.5 Z"/></g>
<g><path style="opacity:1" fill="#1f232b" d="M 409.5,77.5 C 410.635,79.2132 412.302,79.8799 414.5,79.5C 412.08,81.9244 409.413,82.0911 406.5,80C 407.373,78.955 408.373,78.1217 409.5,77.5 Z"/></g>
<g><path style="opacity:1" fill="#121a46" d="M 367.5,79.5 C 366.246,83.1756 364.579,86.6756 362.5,90C 358.523,90.2544 354.856,89.4211 351.5,87.5C 348.984,84.2285 345.818,81.5619 342,79.5C 341.289,77.6332 341.789,76.1332 343.5,75C 346.932,74.8839 349.932,73.7172 352.5,71.5C 357.167,72.8334 361.834,74.1667 366.5,75.5C 367.246,76.7362 367.579,78.0695 367.5,79.5 Z"/></g>
<g><path style="opacity:1" fill="#141a42" d="M 432.5,88.5 C 429.794,88.4249 427.127,88.0916 424.5,87.5C 424.611,86.8826 424.944,86.3826 425.5,86C 424.207,85.51 422.873,85.3433 421.5,85.5C 421.67,84.1779 421.337,83.0113 420.5,82C 423.96,79.1864 427.793,77.0197 432,75.5C 434.074,79.2528 433.907,82.9195 431.5,86.5C 431.863,87.1835 432.196,87.8501 432.5,88.5 Z"/></g>
<g><path style="opacity:1" fill="#1a1e35" d="M 442.5,64.5 C 442.938,64.4346 443.272,64.6012 443.5,65C 441.773,66.3894 440.439,68.0561 439.5,70C 440.294,72.969 440.961,75.969 441.5,79C 440.178,81.6895 440.345,84.1895 442,86.5C 444.205,84.6387 446.705,83.1387 449.5,82C 451.857,79.3129 454.19,76.6462 456.5,74C 457.08,71.5418 457.414,69.0418 457.5,66.5C 458.495,60.8461 456.162,57.8461 450.5,57.5C 452.554,52.2624 454.721,52.2624 457,57.5C 461.98,71.7161 457.48,81.8828 443.5,88C 441.19,88.4966 438.857,88.6633 436.5,88.5C 438.556,82.6017 438.89,76.6017 437.5,70.5C 438.434,67.8982 440.101,65.8982 442.5,64.5 Z"/></g>
<g><path style="opacity:1" fill="#191e32" d="M 367.5,87.5 C 367.281,88.675 367.614,89.675 368.5,90.5C 373.482,89.8808 378.482,89.2141 383.5,88.5C 381.887,87.5726 380.221,86.7393 378.5,86C 379.727,84.4126 379.394,83.0793 377.5,82C 373.859,80.6846 371.526,81.8512 370.5,85.5C 369.571,86.5498 368.905,86.5498 368.5,85.5C 369.656,82.2326 370.823,78.8993 372,75.5C 377.008,79.6767 381.841,84.01 386.5,88.5C 385.975,89.1924 385.308,89.6924 384.5,90C 378.178,91.4447 371.845,91.6114 365.5,90.5C 365.942,89.2613 366.609,88.2613 367.5,87.5 Z"/></g>
<g><path style="opacity:1" fill="#141a46" d="M 367.5,87.5 C 367.328,86.5084 367.662,85.8417 368.5,85.5C 368.905,86.5498 369.571,86.5498 370.5,85.5C 371.526,81.8512 373.859,80.6846 377.5,82C 379.394,83.0793 379.727,84.4126 378.5,86C 380.221,86.7393 381.887,87.5726 383.5,88.5C 378.482,89.2141 373.482,89.8808 368.5,90.5C 367.614,89.675 367.281,88.675 367.5,87.5 Z"/></g>
<g><path style="opacity:1" fill="#191e3a" d="M 426.5,95.5 C 414.478,102.019 403.478,100.519 393.5,91C 399.362,89.3241 405.029,87.1574 410.5,84.5C 416.829,87.8876 423.496,90.3876 430.5,92C 429.295,93.3756 427.962,94.5423 426.5,95.5 Z"/></g>
<g><path style="opacity:1" fill="#222542" d="M 351.5,91.5 C 349.801,91.6602 348.134,91.4935 346.5,91C 344.507,89.0014 342.173,87.5014 339.5,86.5C 338.522,86.9767 337.689,87.6433 337,88.5C 337.536,86.553 337.202,84.553 336,82.5C 335.503,84.8098 335.337,87.1432 335.5,89.5C 334.844,88.3784 334.511,87.0451 334.5,85.5C 334.365,83.192 335.031,81.192 336.5,79.5C 340.942,84.2836 345.942,88.2836 351.5,91.5 Z"/></g>
<g><path style="opacity:1" fill="#111845" d="M 351.5,91.5 C 351.5,92.8333 351.5,94.1667 351.5,95.5C 348.813,95.6641 346.146,95.4974 343.5,95C 341.348,93.5873 339.014,92.7539 336.5,92.5C 335.89,91.609 335.557,90.609 335.5,89.5C 335.337,87.1432 335.503,84.8098 336,82.5C 337.202,84.553 337.536,86.553 337,88.5C 337.689,87.6433 338.522,86.9767 339.5,86.5C 342.173,87.5014 344.507,89.0014 346.5,91C 348.134,91.4935 349.801,91.6602 351.5,91.5 Z"/></g>
<g><path style="opacity:1" fill="#10194b" d="M 426.5,95.5 C 423.482,95.6646 420.482,95.498 417.5,95C 415.869,93.1644 415.202,93.6644 415.5,96.5C 413.473,96.6621 411.473,96.4955 409.5,96C 408.167,93.3333 406.167,91.3333 403.5,90C 404,89.5 404.5,89 405,88.5C 409.711,88.699 414.545,89.5323 419.5,91C 420.949,92.117 422.616,92.7837 424.5,93C 425.381,93.7083 426.047,94.5416 426.5,95.5 Z"/></g>
<g><path style="opacity:1" fill="#a3ccd9" d="M 155.5,79.5 C 161.789,93.9026 170.456,106.736 181.5,118C 203.176,135.575 227.843,141.409 255.5,135.5C 255.5,136.5 255.5,137.5 255.5,138.5C 247.505,139.166 239.505,139.832 231.5,140.5C 227.286,140.119 223.119,139.452 219,138.5C 216.719,138.563 214.886,139.397 213.5,141C 211.527,141.495 209.527,141.662 207.5,141.5C 207.5,140.167 207.5,138.833 207.5,137.5C 208.978,137.762 210.311,137.429 211.5,136.5C 208.827,135.568 206.161,135.402 203.5,136C 199.3,131.731 194.3,128.731 188.5,127C 187.833,126 187.167,125 186.5,124C 182.782,121.303 178.782,118.97 174.5,117C 172.845,115.556 172.178,113.722 172.5,111.5C 171.325,111.719 170.325,111.386 169.5,110.5C 166.893,106.385 164.06,102.385 161,98.5C 160.517,97.552 160.351,96.552 160.5,95.5C 159.5,95.5 158.5,95.5 157.5,95.5C 156.031,90.2796 155.364,84.9462 155.5,79.5 Z"/></g>
<g><path style="opacity:1" fill="#1a1f3a" d="M 394.5,95.5 C 390.39,95.3899 386.723,96.3899 383.5,98.5C 383.5,97.5 383.5,96.5 383.5,95.5C 376.833,95.5 370.167,95.5 363.5,95.5C 363.719,96.675 363.386,97.675 362.5,98.5C 360.138,100.362 357.471,101.529 354.5,102C 347.465,102.587 340.465,102.254 333.5,101C 332.637,97.3871 330.303,95.3871 326.5,95C 328.37,91.9393 329.037,88.7726 328.5,85.5C 325.913,87.4822 323.246,88.1489 320.5,87.5C 322.978,85.1975 325.645,83.0308 328.5,81C 330.044,79.8129 331.711,79.4795 333.5,80C 330.724,95.8909 337.391,102.558 353.5,100C 356.692,98.9062 359.358,97.0728 361.5,94.5C 370.72,93.8664 379.887,92.8664 389,91.5C 391.15,92.4825 392.983,93.8158 394.5,95.5 Z"/></g>
<g><path style="opacity:1" fill="#1d2038" d="M 351.5,91.5 C 354.097,91.6432 356.431,92.4766 358.5,94C 353.145,98.5877 347.145,99.5877 340.5,97C 338.959,95.6288 337.625,94.1288 336.5,92.5C 339.014,92.7539 341.348,93.5873 343.5,95C 346.146,95.4974 348.813,95.6641 351.5,95.5C 351.5,94.1667 351.5,92.8333 351.5,91.5 Z"/></g>
<g><path style="opacity:1" fill="#181f3a" d="M 313.5,90.5 C 308.194,95.1396 303.194,100.14 298.5,105.5C 297.5,106.167 296.5,106.833 295.5,107.5C 294.559,105.95 293.893,104.284 293.5,102.5C 294.552,102.649 295.552,102.483 296.5,102C 298.05,98.5538 300.717,96.5538 304.5,96C 306.674,92.6301 309.674,90.7967 313.5,90.5 Z"/></g>
<g><path style="opacity:1" fill="#1a1f3a" d="M 395.5,96.5 C 406.654,104.042 417.987,104.375 429.5,97.5C 429.539,98.5832 429.873,99.5832 430.5,100.5C 429.975,101.192 429.308,101.692 428.5,102C 422.655,102.84 416.822,103.673 411,104.5C 405.312,104.081 400.145,102.081 395.5,98.5C 394.227,97.7435 394.227,97.0768 395.5,96.5 Z"/></g>
<g><path style="opacity:1" fill="#101d44" d="M 495.5,40.5 C 497.404,49.7798 499.571,59.1132 502,68.5C 509.84,80.8489 518.174,92.8489 527,104.5C 530.578,110.62 529.745,116.12 524.5,121C 521.145,122.118 517.978,123.618 515,125.5C 514.656,140.387 513.489,155.053 511.5,169.5C 511.86,156.355 512.027,143.355 512,130.5C 513.142,128.321 513.975,125.988 514.5,123.5C 514.291,122.914 513.957,122.414 513.5,122C 515.107,122.019 516.774,122.185 518.5,122.5C 518.33,121.178 518.663,120.011 519.5,119C 518.234,118.691 517.067,118.191 516,117.5C 515.99,114.6 517.323,113.934 520,115.5C 520.667,114.833 521.333,114.167 522,113.5C 521.923,114.738 522.089,115.738 522.5,116.5C 523.711,115.126 524.711,113.626 525.5,112C 524.167,111.333 522.833,110.667 521.5,110C 520.56,106.395 519.56,102.895 518.5,99.5C 516.508,99.6715 514.842,99.0049 513.5,97.5C 512.313,98.8938 511.646,98.7271 511.5,97C 513.075,95.8805 514.075,94.3805 514.5,92.5C 514.281,90.0847 512.948,89.0847 510.5,89.5C 510.719,88.325 510.386,87.325 509.5,86.5C 508.549,87.3256 507.549,87.4922 506.5,87C 507.451,86.2825 507.617,85.4491 507,84.5C 506.28,86.2552 505.113,87.0885 503.5,87C 505.441,85.1841 506.108,83.1841 505.5,81C 502.935,76.518 500.269,72.018 497.5,67.5C 497.931,66.7065 498.265,65.8732 498.5,65C 497.069,62.7084 496.236,60.2084 496,57.5C 495.501,51.8431 495.334,46.1764 495.5,40.5 Z"/></g>
<g><path style="opacity:1" fill="#dbf6fa" d="M 144.5,21.5 C 145.167,22.8333 145.833,24.1667 146.5,25.5C 146.847,34.9446 148.014,44.2779 150,53.5C 155.306,80.9553 168.473,103.789 189.5,122C 228.691,143.615 264.024,138.781 295.5,107.5C 296.5,106.833 297.5,106.167 298.5,105.5C 299.492,105.328 300.158,105.662 300.5,106.5C 298.833,107.5 297.5,108.833 296.5,110.5C 284.232,121.134 270.566,129.467 255.5,135.5C 227.843,141.409 203.176,135.575 181.5,118C 170.456,106.736 161.789,93.9026 155.5,79.5C 148.349,60.883 144.682,41.5496 144.5,21.5 Z"/></g>
</svg>
